<svg width="24" height="24" viewBox="0 0 24 24" fill="none" xmlns="http://www.w3.org/2000/svg">
<path d="M3.15385 3C2.5166 3 2 3.44772 2 4C2 4.55228 2.5166 5 3.15385 5H15.8462C16.4834 5 17 4.55228 17 4C17 3.44772 16.4834 3 15.8462 3H3.15385Z" fill="white"/>
<path d="M3.28571 8C2.57564 8 2 8.44772 2 9C2 9.55228 2.57564 10 3.28571 10H11.7143C12.4244 10 13 9.55228 13 9C13 8.44772 12.4244 8 11.7143 8H3.28571Z" fill="white"/>
<path d="M3.33333 13C2.59696 13 2 13.4477 2 14C2 14.5523 2.59696 15 3.33333 15H7.66667C8.40304 15 9 14.5523 9 14C9 13.4477 8.40304 13 7.66667 13H3.33333Z" fill="white"/>
<path d="M17 9C17 8.4477 17.4477 8 18 8C18.5523 8 19 8.4477 19 9V18.5858L21.2929 16.2929C21.6834 15.9024 22.3166 15.9024 22.7071 16.2929C23.0976 16.6834 23.0976 17.3166 22.7071 17.7071L18.7071 21.7071C18.5196 21.8946 18.2652 22 18 22C17.7348 22 17.4804 21.8946 17.2929 21.7071L13.2929 17.7071C12.9024 17.3166 12.9024 16.6834 13.2929 16.2929C13.6834 15.9024 14.3166 15.9024 14.7071 16.2929L17 18.5858V9Z" fill="white"/>
</svg>
